<svg width="400" height="120" viewBox="0 45 400 100" fill="none" xmlns="http://www.w3.org/2000/svg">
<path d="M106.936 114.019C104.948 114.019 103.379 115.728 103.379 117.855C103.379 119.983 104.983 121.692 106.936 121.692C108.924 121.692 110.494 119.983 110.494 117.855C110.494 115.728 108.889 114.019 106.936 114.019ZM94.2056 114.019C92.2175 114.019 90.648 115.728 90.648 117.855C90.648 119.983 92.2524 121.692 94.2056 121.692C96.1936 121.692 97.7632 119.983 97.7632 117.855C97.798 115.728 96.1936 114.019 94.2056 114.019Z" fill="white"/>
<path d="M123.887 85H77.1501C73.2088 85 70 88.2088 70 92.15V138.887C70 142.828 73.2088 146.037 77.1501 146.037H116.702L114.853 139.654L119.318 143.77L123.538 147.641L131.072 154.164V92.15C131.037 88.2088 127.828 85 123.887 85ZM110.424 130.167C110.424 130.167 109.168 128.668 108.122 127.377C112.691 126.087 114.435 123.261 114.435 123.261C113.005 124.203 111.645 124.866 110.424 125.319C108.68 126.052 107.006 126.505 105.367 126.819C102.018 127.447 98.949 127.272 96.3331 126.784C94.3451 126.401 92.636 125.877 91.206 125.284C90.4038 124.971 89.5318 124.587 88.6599 124.099C88.5553 124.029 88.4506 123.994 88.346 123.924C88.2762 123.889 88.2414 123.854 88.2065 123.854C87.5787 123.506 87.2299 123.261 87.2299 123.261C87.2299 123.261 88.904 126.017 93.3336 127.342C92.2872 128.668 90.9967 130.202 90.9967 130.202C83.2886 129.958 80.3589 124.936 80.3589 124.936C80.3589 113.809 85.3813 104.776 85.3813 104.776C90.4038 101.044 95.1473 101.149 95.1473 101.149L95.496 101.567C89.2179 103.346 86.3579 106.101 86.3579 106.101C86.3579 106.101 87.1252 105.683 88.4157 105.125C92.1477 103.485 95.1124 103.067 96.3331 102.927C96.5424 102.893 96.7168 102.858 96.926 102.858C99.0536 102.579 101.46 102.509 103.971 102.788C107.285 103.172 110.842 104.148 114.47 106.101C114.47 106.101 111.714 103.485 105.785 101.707L106.273 101.149C106.273 101.149 111.052 101.044 116.039 104.776C116.039 104.776 121.062 113.809 121.062 124.936C121.062 124.901 118.132 129.923 110.424 130.167ZM163.09 99.9279H151.511V112.937L159.219 119.878V107.252H163.334C165.95 107.252 167.241 108.508 167.241 110.531V120.192C167.241 122.215 166.02 123.575 163.334 123.575H151.476V130.935H163.055C169.264 130.97 175.088 127.865 175.088 120.75V110.357C175.123 103.102 169.299 99.9279 163.09 99.9279V99.9279ZM223.778 120.75V110.077C223.778 106.241 230.684 105.369 232.777 109.206L239.16 106.625C236.649 101.114 232.079 99.5094 228.278 99.5094C222.069 99.5094 215.931 103.102 215.931 110.077V120.75C215.931 127.796 222.069 131.318 228.138 131.318C232.045 131.318 236.718 129.4 239.299 124.378L232.463 121.239C230.789 125.529 223.778 124.482 223.778 120.75V120.75ZM202.677 111.542C200.27 111.019 198.666 110.147 198.561 108.647C198.701 105.055 204.247 104.915 207.49 108.368L212.617 104.427C209.409 100.521 205.781 99.4745 202.049 99.4745C196.364 99.4745 190.853 102.683 190.853 108.752C190.853 114.647 195.387 117.82 200.375 118.588C202.921 118.937 205.746 119.948 205.677 121.692C205.467 125.005 198.631 124.831 195.527 121.064L190.574 125.703C193.469 129.435 197.41 131.318 201.108 131.318C206.793 131.318 213.106 128.04 213.35 122.041C213.699 114.472 208.188 112.554 202.677 111.542V111.542ZM179.309 130.9H187.121V99.9279H179.309V130.9ZM311.044 99.9279H299.464V112.937L307.172 119.878V107.252H311.288C313.904 107.252 315.194 108.508 315.194 110.531V120.192C315.194 122.215 313.974 123.575 311.288 123.575H299.429V130.935H311.044C317.252 130.97 323.077 127.865 323.077 120.75V110.357C323.077 103.102 317.252 99.9279 311.044 99.9279V99.9279ZM254.227 99.5094C247.81 99.5094 241.427 102.997 241.427 110.147V120.715C241.427 127.796 247.844 131.353 254.297 131.353C260.715 131.353 267.097 127.796 267.097 120.715V110.147C267.097 103.032 260.645 99.5094 254.227 99.5094V99.5094ZM259.25 120.715C259.25 122.948 256.738 124.099 254.262 124.099C251.751 124.099 249.24 123.017 249.24 120.715V110.147C249.24 107.88 251.681 106.659 254.123 106.659C256.669 106.659 259.25 107.741 259.25 110.147V120.715ZM295.139 110.147C294.965 102.893 290.012 99.9628 283.63 99.9628H271.248V130.935H279.165V121.099H280.56L287.745 130.935H297.511L289.071 120.297C292.803 119.111 295.139 115.867 295.139 110.147V110.147ZM283.769 114.333H279.165V107.252H283.769C288.687 107.252 288.687 114.333 283.769 114.333Z" fill="white"/>
<path d="M78.0859 50.9375H82.1875V62.6445C82.1875 63.7305 81.9336 64.6992 81.4258 65.5508C80.9258 66.4023 80.2227 67.0625 79.3164 67.5312C78.418 68 77.4141 68.2344 76.3047 68.2344C74.4453 68.2344 73 67.7656 71.9688 66.8281C70.9375 65.8906 70.4219 64.5625 70.4219 62.8438H74.5469C74.5469 63.625 74.6797 64.1914 74.9453 64.543C75.2188 64.8945 75.6719 65.0703 76.3047 65.0703C76.875 65.0703 77.3125 64.8594 77.6172 64.4375C77.9297 64.0078 78.0859 63.4102 78.0859 62.6445V50.9375ZM99.2383 59.8203C99.2383 61.4844 98.9297 62.957 98.3125 64.2383C97.6953 65.5195 96.8164 66.5078 95.6758 67.2031C94.543 67.8906 93.25 68.2344 91.7969 68.2344C90.3438 68.2344 89.0547 67.9023 87.9297 67.2383C86.8047 66.5664 85.9258 65.6094 85.293 64.3672C84.668 63.125 84.3398 61.6992 84.3086 60.0898V59.1289C84.3086 57.457 84.6133 55.9844 85.2227 54.7109C85.8398 53.4297 86.7188 52.4414 87.8594 51.7461C89.0078 51.0508 90.3125 50.7031 91.7734 50.7031C93.2188 50.7031 94.5078 51.0469 95.6406 51.7344C96.7734 52.4219 97.6523 53.4023 98.2773 54.6758C98.9102 55.9414 99.2305 57.3945 99.2383 59.0352V59.8203ZM95.0547 59.1055C95.0547 57.4102 94.7695 56.125 94.1992 55.25C93.6367 54.3672 92.8281 53.9258 91.7734 53.9258C89.7109 53.9258 88.6211 55.4727 88.5039 58.5664L88.4922 59.8203C88.4922 61.4922 88.7695 62.7773 89.3242 63.6758C89.8789 64.5742 90.7031 65.0234 91.7969 65.0234C92.8359 65.0234 93.6367 64.582 94.1992 63.6992C94.7617 62.8164 95.0469 61.5469 95.0547 59.8906V59.1055ZM105.742 68H101.641V50.9375H105.742V68ZM122.852 68H118.762L112.715 57.3828V68H108.602V50.9375H112.715L118.75 61.5547V50.9375H122.852V68ZM145.879 59.8203C145.879 61.4844 145.57 62.957 144.953 64.2383C144.336 65.5195 143.457 66.5078 142.316 67.2031C141.184 67.8906 139.891 68.2344 138.438 68.2344C136.984 68.2344 135.695 67.9023 134.57 67.2383C133.445 66.5664 132.566 65.6094 131.934 64.3672C131.309 63.125 130.98 61.6992 130.949 60.0898V59.1289C130.949 57.457 131.254 55.9844 131.863 54.7109C132.48 53.4297 133.359 52.4414 134.5 51.7461C135.648 51.0508 136.953 50.7031 138.414 50.7031C139.859 50.7031 141.148 51.0469 142.281 51.7344C143.414 52.4219 144.293 53.4023 144.918 54.6758C145.551 55.9414 145.871 57.3945 145.879 59.0352V59.8203ZM141.695 59.1055C141.695 57.4102 141.41 56.125 140.84 55.25C140.277 54.3672 139.469 53.9258 138.414 53.9258C136.352 53.9258 135.262 55.4727 135.145 58.5664L135.133 59.8203C135.133 61.4922 135.41 62.7773 135.965 63.6758C136.52 64.5742 137.344 65.0234 138.438 65.0234C139.477 65.0234 140.277 64.582 140.84 63.6992C141.402 62.8164 141.688 61.5469 141.695 59.8906V59.1055ZM161.383 50.9375V62.1055C161.383 63.3711 161.113 64.4688 160.574 65.3984C160.035 66.3203 159.262 67.0234 158.254 67.5078C157.246 67.9922 156.055 68.2344 154.68 68.2344C152.602 68.2344 150.965 67.6953 149.77 66.6172C148.574 65.5391 147.965 64.0625 147.941 62.1875V50.9375H152.078V62.2695C152.125 64.1367 152.992 65.0703 154.68 65.0703C155.531 65.0703 156.176 64.8359 156.613 64.3672C157.051 63.8984 157.27 63.1367 157.27 62.082V50.9375H161.383ZM170.301 61.9766H168.074V68H163.961V50.9375H170.676C172.699 50.9375 174.281 51.3867 175.422 52.2852C176.562 53.1836 177.133 54.4531 177.133 56.0938C177.133 57.2812 176.891 58.2656 176.406 59.0469C175.93 59.8281 175.18 60.4609 174.156 60.9453L177.719 67.8242V68H173.312L170.301 61.9766ZM168.074 58.8008H170.676C171.457 58.8008 172.043 58.5977 172.434 58.1914C172.832 57.7773 173.031 57.2031 173.031 56.4688C173.031 55.7344 172.832 55.1602 172.434 54.7461C172.035 54.3242 171.449 54.1133 170.676 54.1133H168.074V58.8008ZM199.398 62.2227C199.344 63.4102 199.023 64.4609 198.438 65.375C197.852 66.2812 197.027 66.9844 195.965 67.4844C194.91 67.9844 193.703 68.2344 192.344 68.2344C190.102 68.2344 188.336 67.5039 187.047 66.043C185.758 64.582 185.113 62.5195 185.113 59.8555V59.0117C185.113 57.3398 185.402 55.8789 185.98 54.6289C186.566 53.3711 187.406 52.4023 188.5 51.7227C189.594 51.0352 190.859 50.6914 192.297 50.6914C194.367 50.6914 196.031 51.2383 197.289 52.332C198.547 53.418 199.262 54.918 199.434 56.832H195.332C195.301 55.793 195.039 55.0469 194.547 54.5938C194.055 54.1406 193.305 53.9141 192.297 53.9141C191.273 53.9141 190.523 54.2969 190.047 55.0625C189.57 55.8281 189.32 57.0508 189.297 58.7305V59.9375C189.297 61.7578 189.523 63.0586 189.977 63.8398C190.438 64.6211 191.227 65.0117 192.344 65.0117C193.289 65.0117 194.012 64.7891 194.512 64.3438C195.012 63.8984 195.277 63.1914 195.309 62.2227H199.398ZM215.793 59.8203C215.793 61.4844 215.484 62.957 214.867 64.2383C214.25 65.5195 213.371 66.5078 212.23 67.2031C211.098 67.8906 209.805 68.2344 208.352 68.2344C206.898 68.2344 205.609 67.9023 204.484 67.2383C203.359 66.5664 202.48 65.6094 201.848 64.3672C201.223 63.125 200.895 61.6992 200.863 60.0898V59.1289C200.863 57.457 201.168 55.9844 201.777 54.7109C202.395 53.4297 203.273 52.4414 204.414 51.7461C205.562 51.0508 206.867 50.7031 208.328 50.7031C209.773 50.7031 211.062 51.0469 212.195 51.7344C213.328 52.4219 214.207 53.4023 214.832 54.6758C215.465 55.9414 215.785 57.3945 215.793 59.0352V59.8203ZM211.609 59.1055C211.609 57.4102 211.324 56.125 210.754 55.25C210.191 54.3672 209.383 53.9258 208.328 53.9258C206.266 53.9258 205.176 55.4727 205.059 58.5664L205.047 59.8203C205.047 61.4922 205.324 62.7773 205.879 63.6758C206.434 64.5742 207.258 65.0234 208.352 65.0234C209.391 65.0234 210.191 64.582 210.754 63.6992C211.316 62.8164 211.602 61.5469 211.609 59.8906V59.1055ZM223.316 50.9375L227.125 62.8086L230.922 50.9375H236.336V68H232.211V64.0156L232.609 55.8594L228.484 68H225.766L221.629 55.8477L222.027 64.0156V68H217.914V50.9375H223.316ZM244.363 50.9375L248.172 62.8086L251.969 50.9375H257.383V68H253.258V64.0156L253.656 55.8594L249.531 68H246.812L242.676 55.8477L243.074 64.0156V68H238.961V50.9375H244.363ZM273.391 50.9375V62.1055C273.391 63.3711 273.121 64.4688 272.582 65.3984C272.043 66.3203 271.27 67.0234 270.262 67.5078C269.254 67.9922 268.062 68.2344 266.688 68.2344C264.609 68.2344 262.973 67.6953 261.777 66.6172C260.582 65.5391 259.973 64.0625 259.949 62.1875V50.9375H264.086V62.2695C264.133 64.1367 265 65.0703 266.688 65.0703C267.539 65.0703 268.184 64.8359 268.621 64.3672C269.059 63.8984 269.277 63.1367 269.277 62.082V50.9375H273.391ZM290.219 68H286.129L280.082 57.3828V68H275.969V50.9375H280.082L286.117 61.5547V50.9375H290.219V68ZM297.203 68H293.102V50.9375H297.203V68ZM313.105 54.1133H307.984V68H303.871V54.1133H298.844V50.9375H313.105V54.1133ZM321.285 58.3438L324.426 50.9375H328.867L323.371 61.8711V68H319.199V61.8711L313.715 50.9375H318.133L321.285 58.3438Z" fill="white"/>
</svg>
